name rise36.2859peak64.2979fall75.1499.mot
datacolumns 19
datarows 23
range 4.83831700000000 4.87497700000000
endheader
time	ground_force1_vx	ground_force1_vy	ground_force1_vz	ground_force1_px	ground_force1_py	ground_force1_pz	ground_force2_vx	ground_force2_vy	ground_force2_vz	ground_force2_px	ground_force2_py	ground_force2_pz	ground_torque1_x	ground_torque1_y	ground_torque1_z	ground_torque2_x	ground_torque2_y	ground_torque2_z	
4.83831700000000	-32.42553300000000	797.81080699999995	52.45128200000000	0.22131600000000	0.00000000000000	0.07785600000000	-1.65424200000000	3.47016100000000	0.75098500000000	0.00000000000000	0.00000000000000	0.00000000000000	0.00000000000000	25.37969800000000	0.00000000000000	0.00000000000000	0.21927000000000	0.00000000000000	
4.83998600000000	-32.88017700000000	795.71298400000001	52.32498700000000	0.22026700000000	0.00000000000000	0.07785900000000	-2.69365100000000	6.77155900000000	1.30392800000000	0.00000000000000	0.00000000000000	0.00000000000000	0.00000000000000	25.28277400000000	0.00000000000000	0.00000000000000	0.39664200000000	0.00000000000000	
4.84165000000000	-33.35780900000000	793.54183399999999	52.18466200000000	0.21920300000000	0.00000000000000	0.07785800000000	-3.87926100000000	10.77158900000000	1.95056100000000	0.00000000000000	0.00000000000000	0.00000000000000	0.00000000000000	25.18423400000000	0.00000000000000	0.00000000000000	0.60688500000000	0.00000000000000	
4.84331400000000	-33.85877400000000	791.29685500000005	52.03013300000000	0.21812300000000	0.00000000000000	0.07785400000000	-5.17812100000000	15.43072800000000	2.67746700000000	0.00000000000000	0.00000000000000	0.00000000000000	0.00000000000000	25.08414700000000	0.00000000000000	0.00000000000000	0.84647300000000	0.00000000000000	
4.84498100000000	-34.38334800000000	788.97743200000002	51.86123200000000	0.21702900000000	0.00000000000000	0.07784800000000	-6.54825300000000	20.67890800000000	3.46615100000000	0.00000000000000	0.00000000000000	0.00000000000000	0.00000000000000	24.98258000000000	0.00000000000000	0.00000000000000	1.11021900000000	0.00000000000000	
4.84664700000000	-34.93173600000000	786.58283100000006	51.67780100000000	0.21592100000000	0.00000000000000	0.07783800000000	-7.94141700000000	26.42081100000000	4.29425000000000	0.43102000000000	0.00000000000000	-0.10322200000000	0.00000000000000	24.87959600000000	0.00000000000000	0.00000000000000	2.42280700000000	0.00000000000000	
4.84831400000000	-35.50406800000000	784.11220000000003	51.47969100000000	0.21479900000000	0.00000000000000	0.07782500000000	-9.30664400000000	32.54387800000000	5.13718200000000	0.42859000000000	0.00000000000000	-0.10414600000000	0.00000000000000	24.77525600000000	0.00000000000000	0.00000000000000	2.91587100000000	0.00000000000000	
4.84997900000000	-36.10039700000000	781.56456300000002	51.26676200000000	0.21366500000000	0.00000000000000	0.07780900000000	-10.59409700000000	38.92798100000000	5.97001900000000	0.42679100000000	0.00000000000000	-0.10495600000000	0.00000000000000	24.66961600000000	0.00000000000000	0.00000000000000	3.41394600000000	0.00000000000000	
4.85164900000000	-36.72069400000000	778.93882299999996	51.03888400000000	0.21252000000000	0.00000000000000	0.07778900000000	-11.75872300000000	45.45536800000000	6.76932500000000	0.42551300000000	0.00000000000000	-0.10567000000000	0.00000000000000	24.56272900000000	0.00000000000000	0.00000000000000	3.90583700000000	0.00000000000000	
4.85331600000000	-37.36484800000000	776.23375699999997	50.79593300000000	0.21136400000000	0.00000000000000	0.07776700000000	-12.76323100000000	52.01956100000000	7.51471500000000	0.42466500000000	0.00000000000000	-0.10630400000000	0.00000000000000	24.45464100000000	0.00000000000000	0.00000000000000	4.38150900000000	0.00000000000000	
4.85498600000000	-38.03266100000000	773.44801900000004	50.53779900000000	0.21019800000000	0.00000000000000	0.07774100000000	-13.58011600000000	58.53226600000000	8.18999700000000	0.42418000000000	0.00000000000000	-0.10687100000000	0.00000000000000	24.34539300000000	0.00000000000000	0.00000000000000	4.83266100000000	0.00000000000000	
4.85664800000000	-38.72384600000000	770.58014200000002	50.26437900000000	0.20902400000000	0.00000000000000	0.07771100000000	-14.19259700000000	64.92779600000000	8.78379800000000	0.42399800000000	0.00000000000000	-0.10738100000000	0.00000000000000	24.23502200000000	0.00000000000000	0.00000000000000	5.25307800000000	0.00000000000000	
4.85831600000000	-39.43802800000000	767.62853900000005	49.97558100000000	0.20784200000000	0.00000000000000	0.07767900000000	-14.59455000000000	71.16494899999999	9.28971500000000	0.42407500000000	0.00000000000000	-0.10784300000000	0.00000000000000	24.12355500000000	0.00000000000000	0.00000000000000	5.63875400000000	0.00000000000000	
4.85997800000000	-40.17473800000000	764.59150499999998	49.67132300000000	0.20665300000000	0.00000000000000	0.07764300000000	-14.78957600000000	77.22656600000001	9.70602300000000	0.42437200000000	0.00000000000000	-0.10826300000000	0.00000000000000	24.01101300000000	0.00000000000000	0.00000000000000	5.98782600000000	0.00000000000000	
4.86164700000000	-40.93341100000000	761.46722699999998	49.35153300000000	0.20546000000000	0.00000000000000	0.07760300000000	-14.78943200000000	83.11717700000000	10.03505600000000	0.42485800000000	0.00000000000000	-0.10864700000000	0.00000000000000	23.89741100000000	0.00000000000000	0.00000000000000	6.30034000000000	0.00000000000000	
4.86331200000000	-41.71339100000000	758.25378000000001	49.01615300000000	0.20426200000000	0.00000000000000	0.07756000000000	-14.61205000000000	88.85927400000000	10.28236700000000	0.42550600000000	0.00000000000000	-0.10899900000000	0.00000000000000	23.78275300000000	0.00000000000000	0.00000000000000	6.57789700000000	0.00000000000000	
4.86498100000000	-42.51392100000000	754.94914200000005	48.66513500000000	0.20306200000000	0.00000000000000	0.07751400000000	-14.27940400000000	94.48874600000001	10.45576000000000	0.42629500000000	0.00000000000000	-0.10932400000000	0.00000000000000	23.66703600000000	0.00000000000000	0.00000000000000	6.82323900000000	0.00000000000000	
4.86665100000000	-43.33415000000000	751.55119500000001	48.29844200000000	0.20186100000000	0.00000000000000	0.07746400000000	-13.81540300000000	100.05002100000000	10.56431700000000	0.42720500000000	0.00000000000000	-0.10962500000000	0.00000000000000	23.55024900000000	0.00000000000000	0.00000000000000	7.03980800000000	0.00000000000000	
4.86831300000000	-44.17312600000000	748.05773399999998	47.91605400000000	0.20066100000000	0.00000000000000	0.07741000000000	-13.24398800000000	105.59132900000000	10.61748700000000	0.42822000000000	0.00000000000000	-0.10990500000000	0.00000000000000	23.43236900000000	0.00000000000000	0.00000000000000	7.23132300000000	0.00000000000000	
4.86998200000000	-45.02980000000000	744.46647499999995	47.51796000000000	0.19946200000000	0.00000000000000	0.07735300000000	-12.58755000000000	111.16047900000000	10.62430600000000	0.42932600000000	0.00000000000000	-0.11016600000000	0.00000000000000	23.31336600000000	0.00000000000000	0.00000000000000	7.40139900000000	0.00000000000000	
4.87164700000000	-45.90302500000000	740.77506800000003	47.10416800000000	0.19826600000000	0.00000000000000	0.07729200000000	-11.86573600000000	116.80136100000000	10.59277800000000	0.43051300000000	0.00000000000000	-0.11041100000000	0.00000000000000	23.19319700000000	0.00000000000000	0.00000000000000	7.55324600000000	0.00000000000000	
4.87331900000000	-46.79155500000000	736.98109799999997	46.67469600000000	0.19707500000000	0.00000000000000	0.07722800000000	-11.09466600000000	122.55134099999999	10.52945300000000	0.43176900000000	0.00000000000000	-0.11064100000000	0.00000000000000	23.07181100000000	0.00000000000000	0.00000000000000	7.68944000000000	0.00000000000000	
4.87497700000000	-47.69404800000000	733.08210399999996	46.22958300000000	0.19589000000000	0.00000000000000	0.07716000000000	-10.28655000000000	128.43957399999999	10.43917900000000	0.43308500000000	0.00000000000000	-0.11085900000000	0.00000000000000	22.94914600000000	0.00000000000000	0.00000000000000	7.81178300000000	0.00000000000000	
